<svg viewBox="0 0 85 92" fill="none" xmlns="http://www.w3.org/2000/svg">
<g clip-path="url(#clip0_1_51)">
<rect x="18.5105" y="24.9669" width="34" height="46" rx="5" transform="rotate(-20.1994 18.5105 24.9669)" fill="#BEA000"/>
<path d="M20.8775 23.8796C19.2813 24.4669 18.6149 26.6492 19.3892 28.7538L32.6086 64.6843C33.383 66.789 35.3048 68.019 36.901 67.4318L64.1505 57.4062C65.7467 56.819 66.4129 54.6368 65.6385 52.5321L52.4192 16.6016C51.6448 14.497 49.7232 13.2668 48.127 13.8541L20.8775 23.8796ZM23.8395 23.7347L23.8411 23.7344C25.1863 23.2406 26.6557 23.9185 27.1505 25.2636C27.3585 25.8288 27.3527 26.4251 27.1818 26.9572C27.2869 26.9008 27.3915 26.8453 27.5067 26.8029C28.8524 26.3078 30.3339 27.0165 30.829 28.3622C31.3241 29.7079 30.6551 31.2078 29.3095 31.7029C28.7393 31.9127 28.1382 31.9037 27.5982 31.7232L29.9458 34.2526L25.9749 35.7135L26.1211 32.3171C25.8267 32.7754 25.3883 33.1456 24.8397 33.3474C23.4941 33.8425 21.9832 33.1442 21.4882 31.7986C20.9931 30.453 21.6912 28.9423 23.0368 28.4472C23.1416 28.4086 23.2472 28.3905 23.3532 28.3659C22.8835 28.0712 22.4875 27.6157 22.2812 27.0551C21.7863 25.71 22.495 24.2305 23.8395 23.7347ZM37.6807 32.195L38.4691 31.9049L50.5741 45.5259C51.0617 46.0768 51.6939 46.2094 52.4705 45.9237L53.0117 45.7246L53.3364 46.6071L46.3944 49.1612L46.0697 48.2786L46.6226 48.0752C47.3443 47.8097 47.8253 47.5437 48.0658 47.2771C48.2293 47.0923 48.2693 46.8861 48.1856 46.6587C48.1365 46.5253 48.057 46.3942 47.9472 46.2654L45.1408 43.1032L38.2692 45.6314L38.2368 48.0479C38.2326 48.6906 38.2911 49.1767 38.4123 49.5061C38.5537 49.8905 38.8515 50.1551 39.3055 50.2998C39.7673 50.4416 40.3395 50.3869 41.0219 50.1358L41.6103 49.9193L41.935 50.8019L35.6283 53.1222L35.3036 52.2397C35.9782 51.9915 36.4582 51.6501 36.7436 51.2155C37.0261 50.7733 37.1806 50.0797 37.207 49.1348L37.6807 32.195ZM38.5733 35.6739L38.3081 44.5749L44.4618 42.3109L38.5733 35.6739ZM54.864 47.1138L58.8349 45.6529L58.6861 49.1007C58.9805 48.6132 59.4325 48.2168 60.0026 48.007C61.3482 47.512 62.8299 48.2206 63.325 49.5663C63.8201 50.912 63.151 52.412 61.8053 52.9071C61.6902 52.9494 61.5746 52.9749 61.4579 53C61.9329 53.2946 62.3237 53.7448 62.5317 54.3101C63.0265 55.6552 62.3472 57.1238 61.0027 57.6195L61.001 57.6201C59.6556 58.114 58.1574 57.4466 57.6625 56.1016C57.4562 55.5408 57.4627 54.9374 57.6294 54.4086C57.5329 54.4585 57.4404 54.5132 57.3356 54.5518C55.99 55.0468 54.4793 54.3486 53.9842 53.0029C53.4891 51.6574 54.1871 50.1466 55.5328 49.6515C56.0813 49.4497 56.6551 49.4474 57.1764 49.6057L54.864 47.1138Z" fill="#140005"/>
</g>
<g clip-path="url(#clip1_1_51)">
<rect x="21.6664" y="22.6878" width="34" height="46" rx="5" transform="rotate(-10.1994 21.6664 22.6878)" fill="#140005"/>
<path d="M24.1861 22.0281C22.5122 22.3293 21.477 24.3627 21.8741 26.5698L28.6534 64.25C29.0505 66.4571 30.7295 68.0022 32.4034 67.701L60.9799 62.5596C62.6539 62.2585 63.6888 60.2251 63.2917 58.0179L56.5125 20.3378C56.1153 18.1306 54.4365 16.5855 52.7626 16.8867L24.1861 22.0281ZM27.0462 21.9118L27.0464 21.9118L33.0538 27.0753L29.2231 34.0106L23.2168 28.8451L27.0462 21.9118ZM39.4029 33.1147L40.2295 32.966L49.7852 48.4821C50.1698 49.1093 50.7694 49.3496 51.5838 49.2031L52.1514 49.101L52.3179 50.0265L45.0379 51.3363L44.8713 50.4108L45.4513 50.3064C46.2081 50.1703 46.728 49.9918 47.011 49.7711C47.2041 49.6173 47.2792 49.4212 47.2363 49.1826C47.2112 49.0428 47.1557 48.8999 47.0699 48.7539L44.8553 45.1526L37.649 46.4492L37.1974 48.8234C37.0819 49.4555 37.0551 49.9444 37.1173 50.2898C37.1898 50.693 37.437 51.0053 37.8589 51.2266C38.2891 51.4464 38.8621 51.4919 39.5777 51.3632L40.1947 51.2522L40.3613 52.1777L33.7475 53.3676L33.581 52.4421C34.2884 52.3148 34.8204 52.062 35.1769 51.6835C35.5321 51.297 35.8047 50.6408 35.9947 49.7149L39.4029 33.1147ZM39.6778 36.6958L37.8708 45.4155L44.3242 44.2545L39.6778 36.6958ZM55.6563 50.2854L61.6639 55.4488L57.833 62.3843L51.8268 57.2187L55.6563 50.2854Z" fill="#BEA000"/>
</g>
<rect x="25.8161" y="22.1717" width="34" height="46" rx="5" transform="rotate(-0.199356 25.8161 22.1717)" fill="#BEA000"/>
<path d="M28.4122 21.9595C26.7114 21.9654 25.3388 23.7882 25.3466 26.0307L25.4798 64.3157C25.4876 66.5582 26.8728 68.3714 28.5736 68.3655L57.6088 68.2644C59.3096 68.2585 60.6819 66.4358 60.6741 64.1932L60.5409 25.9083C60.5331 23.6657 59.1481 21.8526 57.4473 21.8585L28.4122 21.9595ZM31.2263 22.7984C31.2263 22.7984 36.1259 26.3502 36.235 29.4327C36.3257 31.994 33.6075 32.8298 31.9413 31.4079L33.3912 34.8468L29.1601 34.8615L30.5839 31.4146C28.9505 32.8841 26.3665 31.9934 26.2784 29.4674C26.1753 26.5135 31.2263 22.7984 31.2263 22.7984ZM41.3582 35.5204L42.1981 35.5175L48.9144 52.4572C49.1842 53.1416 49.7329 53.4824 50.5604 53.4796L51.1371 53.4776L51.1404 54.4179L43.7435 54.4437L43.7402 53.5033L44.3294 53.5013C45.0984 53.4986 45.6414 53.4131 45.9585 53.2449C46.1753 53.1271 46.2833 52.9471 46.2825 52.7047C46.282 52.5627 46.2522 52.4123 46.1931 52.2536L44.6374 48.3223L37.3155 48.3478L36.4585 50.6075C36.2349 51.2101 36.1237 51.6868 36.1249 52.0377C36.1264 52.4474 36.3156 52.7978 36.6927 53.0891C37.0781 53.3802 37.6345 53.5246 38.3616 53.522L38.9885 53.5199L38.9918 54.4602L32.2719 54.4836L32.2686 53.5432C32.9874 53.5407 33.5552 53.3841 33.972 53.0733C34.3889 52.7544 34.7714 52.1554 35.1194 51.2766L41.3582 35.5204ZM41.0071 39.0948L37.7134 47.3686L44.2704 47.3458L41.0071 39.0948ZM52.4007 55.3782L56.6316 55.3635L55.2058 58.8123C56.8619 57.3789 59.586 58.1958 59.5131 60.7576C59.4254 63.8407 54.5507 67.4266 54.5507 67.4266C54.5507 67.4266 49.4742 63.7467 49.5567 60.7922C49.6271 58.2657 52.2049 57.3568 53.8485 58.8151L52.4007 55.3782Z" fill="#140005"/>
<g clip-path="url(#clip2_1_51)">
<rect x="30.9845" y="23.4149" width="34" height="46" rx="5" transform="rotate(9.80065 30.9845 23.4149)" fill="#140005"/>
<path d="M33.5779 23.6568C31.902 23.3673 30.2337 24.924 29.852 27.1339L23.3351 64.8603C22.9534 67.0701 24.0027 69.0963 25.6786 69.3858L54.2902 74.3282C55.9662 74.6177 57.6342 73.061 58.0159 70.8511L64.5329 33.1247C64.9146 30.9148 63.8655 28.8887 62.1895 28.5992L33.5779 23.6568ZM39.2338 26.3649C40.6542 26.5762 41.8114 27.865 41.5442 29.7655C41.0875 33.0142 35.6323 34.411 34.8507 36.103C34.6661 34.0751 30.1818 31.275 30.6566 27.8847C31.1125 24.6289 35.2242 24.6162 36.3204 27.595C37.1657 26.5802 38.262 26.2204 39.2338 26.3649ZM44.0852 39.2792L44.9128 39.4222L48.5855 57.2708C48.7324 57.9917 49.2135 58.4226 50.0289 58.5635L50.5972 58.6616L50.4372 59.5883L43.1482 58.3292L43.3082 57.4025L43.8889 57.5028C44.6466 57.6337 45.1962 57.6439 45.5377 57.5332C45.7717 57.4548 45.9094 57.2962 45.9506 57.0573C45.9748 56.9174 45.9716 56.7641 45.9409 56.5976L45.0915 52.456L37.8764 51.2097L36.6401 53.2862C36.3152 53.8408 36.1229 54.291 36.0632 54.6369C35.9935 55.0405 36.119 55.4185 36.4397 55.7708C36.7688 56.1245 37.2916 56.3632 38.0081 56.487L38.6259 56.5937L38.4658 57.5203L31.844 56.3765L32.004 55.4498C32.7123 55.5722 33.2987 55.5165 33.7631 55.2829C34.2291 55.0411 34.7097 54.5177 35.205 53.7126L44.0852 39.2792ZM43.1187 42.7384L38.4384 50.3142L44.8996 51.4304L43.1187 42.7384ZM52.807 61.8459C52.9757 63.702 57.6465 66.8478 56.9868 70.0614C56.601 71.9415 55.0784 72.7673 53.6695 72.4899C52.7056 72.3 51.7935 71.5932 51.3374 70.3537C49.3056 72.792 45.4363 71.4008 46.099 68.1807C46.7891 64.8276 51.9527 63.6943 52.807 61.8459Z" fill="#BEA000"/>
</g>
<defs>
<clipPath id="clip0_1_51">
<rect width="54" height="54" fill="white" transform="translate(7.74443 24.6658) rotate(-20.1994)"/>
</clipPath>
<clipPath id="clip1_1_51">
<rect width="54" height="54" fill="white" transform="translate(11.1161 20.5218) rotate(-10.1994)"/>
</clipPath>
<clipPath id="clip2_1_51">
<rect width="54" height="54" fill="white" transform="translate(21.8113 17.7711) rotate(9.80065)"/>
</clipPath>
</defs>
</svg>
